<svg width="122" height="56" viewBox="0 0 122 56" fill="none" xmlns="http://www.w3.org/2000/svg">
<g clip-path="url(#clip0_135_24)">
<path d="M61.7133 2.24411C62.4973 2.13126 62.544 1.36704 62.7435 0.801365C62.7435 0.352828 62.5213 -0.0242873 62.159 0.001425C61.3807 0.0585635 61.1684 0.74851 61.0453 1.38275C60.959 1.84843 61.1868 2.31982 61.7133 2.24411Z" fill="black"/>
<path d="M31.308 11.8048C31.3222 12.2076 31.5911 12.4504 31.8345 12.3962C32.6128 12.2248 32.9596 11.6162 33.0544 10.8649C33.062 10.8107 33.0579 10.7554 33.0422 10.7031C33.0265 10.6507 32.9996 10.6024 32.9635 10.5616C32.9274 10.5207 32.8828 10.4884 32.833 10.4667C32.7832 10.4451 32.7293 10.4347 32.6751 10.4363C31.8741 10.5549 31.5699 11.192 31.308 11.8048Z" fill="black"/>
<path d="M29.4867 18.0258C29.0763 17.8372 28.8668 18.2715 28.6376 18.5229C27.5267 19.7385 26.4497 20.987 25.319 22.184C20.397 27.3908 15.2797 32.399 10.1864 37.4329C8.88589 38.5442 7.60232 39.677 6.28055 40.7612C5.00688 41.804 3.69218 42.8124 2.13972 43.3981C1.05569 43.8067 0.636799 43.4053 0.943894 42.2711C1.34014 40.8112 1.97698 39.4427 2.64211 38.0857C5.99468 31.2048 11.1827 25.7309 16.1571 20.087C18.7384 20.2085 21.3367 20.4499 23.6816 18.8986C21.6006 19.2524 19.491 19.4059 17.3812 19.3571C16.9128 18.6757 17.6374 18.4872 17.919 18.2143C20.0687 16.1431 22.2579 14.1146 24.4288 12.0719L30.4165 7.74656C31.5486 7.28374 32.6114 6.64093 33.8596 6.46095C32.3949 6.05955 31.2076 6.52808 30.1646 7.4723C27.9682 8.60965 25.947 10.0628 24.1642 11.7863C23.6491 12.1619 23.1085 12.5076 22.6231 12.9176C20.6545 14.5789 18.7285 16.2931 16.9892 18.2029C16.2392 19.0257 15.6292 18.9971 14.8254 18.31C13.8801 17.5044 13.447 16.3988 12.9234 15.246C12.5823 16.2759 12.9687 17.0359 13.4753 17.7515C14.0018 18.4943 14.749 19.0371 15.3844 19.5342C15.2429 20.1685 14.8707 20.4185 14.5919 20.7327C11.603 24.1139 8.68211 27.5522 5.9692 31.1605C3.63274 34.2674 1.84253 37.6986 0.471223 41.3397C0.13441 42.2325 -0.438738 43.3153 0.564626 44.1252C1.52129 44.898 2.44257 44.1252 3.34263 43.7667C3.47033 43.7034 3.59331 43.6308 3.71057 43.5495C6.2946 42.0305 8.6276 40.1132 10.6252 37.8671C16.4274 32.6004 21.8277 26.9037 27.4658 21.4398C22.7717 33.0246 17.5935 44.3552 13.1725 56H14.0216C14.0753 55.7228 14.1529 55.4508 14.2537 55.1872C17.6756 47.9906 20.7012 40.6169 23.7354 33.2489C25.6733 28.535 27.6073 23.821 29.5376 19.1071C29.6905 18.7486 30.0867 18.3015 29.4867 18.0258Z" fill="black"/>
<path d="M71.5374 11.1949C72.7743 10.035 73.7564 8.60649 75.1843 7.64942C75.4929 7.44087 75.8339 6.96948 76.175 7.63514C74.9966 9.3493 73.8173 11.0592 72.637 12.7647C72.1488 13.479 71.6789 14.2032 71.4497 15.0417C71.3082 15.576 71.0732 16.2288 71.6605 16.613C72.1417 16.9301 72.6031 16.5587 73.0205 16.2745C74.7952 15.0617 76.3788 13.6175 77.9623 12.1691C78.6869 11.5006 79.2615 10.6435 80.1884 10.1964C81.6404 14.0304 83.8127 14.6546 87.0407 12.2419C89.1111 10.6935 90.2475 8.5165 90.5914 6.06526C90.9919 3.20834 89.9504 1.71274 87.5417 0.878515C86.0912 0.377125 84.7014 0.201424 83.2353 0.949938C84.659 1.36562 86.0289 1.74274 87.3832 2.16699C88.6923 2.57696 89.3079 3.5326 89.4098 4.89106C89.6135 7.60514 87.1879 11.3749 84.6477 12.1962C83.8184 12.4633 82.9282 12.5805 82.2419 11.8662C81.5555 11.152 81.2243 10.3064 81.506 9.31073C81.622 8.90219 81.8428 8.52364 81.9744 8.11653C82.0139 8.01552 82.0159 7.90348 81.98 7.80109C81.9441 7.69869 81.8728 7.61286 81.7791 7.55943C81.5852 7.4423 81.3743 7.38087 81.1974 7.53372C80.8224 7.85798 80.4573 8.19938 80.1092 8.55364C78.1053 10.5963 76.1297 12.6705 73.8668 14.4289C73.4677 14.7389 73.1281 15.2703 72.3908 15.1174C73.3205 13.0447 74.7117 11.4034 75.8849 9.61356C76.4339 8.77791 77.0722 7.99083 77.3623 7.00805C77.4642 6.66093 77.5406 6.19525 77.2576 5.99241C76.8429 5.69529 76.4707 6.1024 76.1127 6.32238C73.9545 7.28088 72.5847 9.08503 71.2558 10.9335C70.7095 11.4249 70.1689 11.9191 70.0869 12.8933C70.747 12.5094 71.2585 11.9105 71.5374 11.1949Z" fill="black"/>
<path d="M119.487 9.73353C117.729 8.87646 115.565 8.51505 113.465 8.71218C114.507 9.37213 115.84 9.42641 117.003 10.2706L105.169 19.7228C105.5 17.9058 106.545 16.8587 106.867 15.2788C105.688 16.3711 104.766 17.7157 104.169 19.2142C102.956 22.1169 100.322 23.4482 98.041 25.2523C99.6911 19.747 102.078 14.5189 103.096 8.35364C101.59 10.7563 101.292 13.1833 99.8963 15.3888C99.5241 13.4747 98.3877 12.6433 96.8098 12.3976C96.0363 12.2621 95.2466 12.2491 94.4691 12.359C91.0132 12.9519 87.6762 13.9304 84.6534 15.7874C82.1669 16.8387 79.9408 18.3586 77.6609 19.7742C76.734 20.3456 75.9457 21.2212 74.6494 20.5413C74.1881 20.2984 73.5428 20.5613 73.0036 20.767C71.5502 21.3226 70.0713 21.814 68.6448 22.434C68.0462 22.6954 67.5919 22.7354 67.1136 22.2911C66.6084 21.6112 65.9263 21.4226 65.9305 22.4483C65.9305 23.591 65.3361 24.0824 64.5479 24.4653C63.5771 24.9352 62.7676 25.6337 61.859 26.1866C62.8949 27.9978 64.0271 25.5537 65.1932 26.3294C64.8592 27.9421 63.2275 27.9707 62.2326 28.7464C61.4373 29.3649 59.9287 29.7734 60.6193 31.0805C61.1514 32.0875 62.2624 31.199 63.0973 30.9376C63.2954 30.8748 63.369 30.8662 63.3322 30.9933C62.5624 32.0918 61.8548 33.2574 61.0566 34.3559C60.5811 35.013 59.9683 35.7273 59.1334 35.3916C58.089 34.9716 58.7357 34.0131 58.8603 33.3174C59.3004 30.8505 60.4085 28.5435 60.6193 26.0151C60.5189 25.6366 61.0085 25.1938 60.4778 24.8481C59.657 25.5895 59.1758 26.5522 58.7867 27.5622C57.6687 30.4562 56.9993 33.4731 56.4728 36.5201C56.3384 37.2929 56.3894 38.0999 56.3766 38.8899C56.3667 39.4913 56.4955 40.0855 57.0587 40.3769C57.7253 40.7212 58.3197 40.3769 58.8065 39.9298C59.3287 39.4455 59.916 38.9684 60.2627 38.3585C61.3 36.5415 63.0294 36.4529 64.8196 36.1515C64.8196 36.5443 64.838 36.7543 64.8196 36.96C64.7474 37.6428 64.4219 38.6156 65.4437 38.6256C66.2617 38.6328 65.9843 37.6428 66.0451 37.0543C66.1244 36.2986 65.8838 35.4359 66.8758 35.0445C69.3864 34.056 71.7016 32.6718 73.99 31.2519C74.8829 32.8775 75.224 33.046 76.6788 32.4861C77.4089 32.1971 78.1142 31.8479 78.7874 31.4419C80.8178 30.2448 82.8372 29.0282 84.8458 27.7921C86.4903 26.7827 88.1215 25.7523 89.7395 24.701C90.249 24.3696 91.033 24.0424 90.5886 23.2368C90.2051 22.5311 89.5527 23.0382 89.0631 23.2039C86.3629 24.1224 83.6854 25.1052 80.9824 26.0137C79.9918 26.3451 79.045 26.8708 77.8945 26.9179C78.37 26.2037 79.0903 26.0151 79.7016 25.6795C82.7669 23.9924 85.8449 22.3254 88.7715 20.3941C89.2485 20.0799 89.7225 19.7571 90.1768 19.4114C90.4075 19.2371 90.6212 18.9585 90.4811 18.6743C90.2943 18.2943 89.915 18.3043 89.5669 18.4614C89.1777 18.6371 88.8112 18.8643 88.4347 19.0528C86.0827 20.207 83.7731 21.4584 81.2866 22.314C81.039 23.1825 81.898 22.7811 82.1188 23.0497C80.9555 22.8982 80.1743 23.7553 79.137 24.2781C79.4837 23.8882 80.3102 23.6939 79.8601 23.1639L77.9624 22.8154C76.9236 23.591 75.7108 23.9482 74.5546 24.4553C74.1626 24.6495 73.7635 24.8081 73.3149 24.7724C73.1567 24.7456 72.9999 24.7108 72.8451 24.6681C72.877 24.5942 72.9255 24.5287 72.9866 24.4767C75.3641 22.3911 77.6397 20.1527 80.814 19.2957C81.1097 18.5614 81.8414 18.3857 82.4244 18.0258C83.4405 17.3987 84.6024 17.0344 85.5378 16.2545C88.0059 15.3288 90.4712 14.3975 93.0539 13.8261C94.1733 13.579 95.2984 13.3975 96.4503 13.5804C98.2136 13.8661 98.7797 14.6489 98.4995 16.4087C98.2094 18.2315 97.3291 19.7785 96.2961 21.2655C92.935 26.1051 89.1933 30.6376 85.4133 35.1416C84.9081 35.7444 84.4227 36.3658 83.9727 37.0157C83.7179 37.3886 83.6571 37.8614 84.0746 38.1742C84.3944 38.4142 84.7595 38.2685 85.0524 38.0314C85.4416 37.7171 85.8138 37.3814 86.1959 37.0572C88.6017 35.0173 90.9905 32.9718 93.402 30.9462C93.8152 30.5991 94.1422 30.0677 94.7875 30.1048C95.0182 30.5077 94.7266 31.269 95.4738 31.259C95.9479 31.2519 96.163 30.7705 96.2352 30.3448C96.3767 29.4963 96.3597 28.5564 97.0532 27.955C98.8052 26.438 100.611 24.9852 102.482 23.4368C103.273 26.2723 104.381 26.9794 106.924 26.4551C108.253 26.1732 109.538 25.7114 110.745 25.0824C113.928 23.4455 116.808 21.2671 119.259 18.6428C120.206 17.6591 120.976 16.5164 121.534 15.266C122.583 12.8561 121.844 10.8777 119.487 9.73353ZM57.806 39.1484C57.4154 38.3228 57.571 37.61 57.7253 36.8629C58.363 36.7439 59.0217 36.8361 59.6032 37.1257C59.248 37.9557 58.6452 38.5199 57.806 39.1484ZM62.7039 35.1802C63.4398 33.8531 64.129 32.7318 65.0234 31.6347C65.3135 34.5502 64.954 35.0802 62.7039 35.1802ZM77.0581 28.6092C79.708 27.4703 82.4467 26.5549 85.2463 25.8723C81.9107 28.5864 77.5166 31.0819 75.275 31.6533C75.0259 30.1063 75.8863 29.1078 77.0581 28.6149V28.6092ZM75.6344 26.5322C74.8065 27.0079 73.973 27.475 73.1508 27.9607C72.715 28.2038 72.2978 28.4793 71.9026 28.7849C70.8468 29.642 70.8836 29.8034 72.4248 30.7419C70.4435 32.0575 68.5344 33.1203 66.3551 33.8331C66.1994 32.1461 66.6777 30.6091 66.7145 29.0435C66.7258 28.5492 67.0372 28.2435 67.4221 28.0521C69.9765 26.7922 72.6484 26.0894 75.6344 26.538V26.5322ZM71.7214 24.3896C70.3501 25.0552 69.2434 26.2394 67.4943 26.6108C67.6669 25.5123 67.8169 24.5438 67.9684 23.5768C70.1095 22.794 72.1347 21.6298 74.6325 21.4341C73.8739 22.8211 72.5182 23.3296 71.7214 24.3981V24.3896ZM89.5357 32.2461C92.1269 28.8764 94.7521 25.5323 97.3192 22.0912C96.5734 26.7394 94.9375 28.8735 89.5357 32.2547V32.2461ZM120.656 14.0932C120.617 14.3785 120.521 14.6527 120.373 14.8989C117.085 20.1942 112.399 23.5939 106.47 25.2909C106.28 25.3278 106.087 25.3441 105.894 25.3395C105.186 25.3395 104.445 25.3938 104.157 24.6781C103.805 23.7996 103.705 22.834 104.312 22.0126C104.646 21.5626 105.14 21.2284 105.585 20.8698C109.389 17.7215 113.194 14.5746 116.999 11.4291C117.522 11.0006 117.863 10.2192 118.769 10.7149C119.675 11.2106 120.548 11.6977 120.722 12.829C120.761 13.2514 120.738 13.6773 120.656 14.0932Z" fill="#0A0A0A"/>
<path d="M69.3552 6.51808C69.0184 6.25667 68.6689 6.40809 68.3844 6.63807C67.9863 6.93633 67.6163 7.27106 67.2791 7.63799C66.43 8.62649 65.864 9.79211 65.3092 10.9563L61.174 14.1489C61.2901 11.7705 62.4095 9.72069 61.7514 7.51229C61.4769 9.77212 60.5981 11.8905 60.3448 14.1475C59.9202 16.3959 57.9984 17.4087 56.4827 19.3257C56.7926 15.326 57.295 11.8405 57.2512 8.32651C57.2398 7.48515 57.6559 6.0824 56.378 6.07526C55.3562 6.07526 55.6704 7.43515 55.5416 8.23081C54.9749 11.6805 53.9867 15.0459 52.5995 18.25C52.5995 17.3687 52.5287 16.9273 52.6136 16.5187C52.7905 15.6774 53.0552 14.8546 53.2759 14.0218C53.392 13.5833 53.4316 13.1019 52.9193 12.9362C52.407 12.7705 52.1919 13.2347 52.0235 13.629C51.7404 14.2889 51.5112 14.9731 51.2069 15.6288C50.4385 17.2701 49.8116 19 48.3299 20.8284C48.3299 19.5428 48.2718 18.7714 48.3426 18.0129C48.4501 16.8701 48.6539 15.7274 48.8054 14.5846C48.8521 14.2303 48.8832 13.8218 48.4685 13.6818C47.8784 13.4804 47.7185 13.9861 47.6293 14.3832C47.1043 16.7244 46.1024 18.8657 44.9759 20.9541C44.7707 21.3355 44.7027 21.9169 43.9853 21.884C44.0192 21.2084 44.0305 20.5613 44.0886 19.9199C44.2074 18.6343 44.3617 17.3487 44.4834 16.0545C44.5329 15.5231 44.9815 14.7617 44.2357 14.546C43.3569 14.2918 43.3541 15.2674 43.1121 15.7902C42.5092 17.093 41.9672 18.4243 41.4011 19.7428C41.2596 20.0728 41.1096 20.3999 40.9766 20.7313C40.8577 21.0241 40.7134 21.2755 40.2874 21.3469C40.4912 18.7986 42.7696 16.5816 41.2384 13.9089C39.1071 14.1646 37.4698 15.276 36.172 16.8744C34.5205 18.9086 32.9171 20.9884 31.9265 23.4639C31.1043 24.1339 30.9712 25.3481 29.9693 25.9594C30.691 22.4497 31.7736 19.0557 31.8416 15.476C30.5594 19.7085 29.6622 24.0467 28.1168 28.1979C27.9937 28.5264 27.9144 28.9449 28.3065 29.1349C28.6985 29.3249 28.9631 29.0235 29.215 28.7607C30.5536 27.3851 31.6386 25.7796 32.419 24.0196C33.0685 23.2554 33.1464 23.5753 33.2936 24.3739C33.6714 26.4223 34.7922 26.8237 36.414 25.5438C36.9136 25.1481 37.3084 24.6196 37.7698 24.171C38.2311 23.7225 38.3627 22.9982 39.0972 22.874C39.3944 23.4382 38.8297 24.1882 39.6237 24.7238C41.4634 23.4868 41.4294 20.957 43.0569 19.3128C42.9706 20.2327 42.8644 20.9398 42.8474 21.6498C42.8248 22.5469 42.3012 23.8268 43.3116 24.201C44.4947 24.6296 44.84 23.2139 45.3806 22.4483C45.958 21.6326 46.4137 20.7341 46.9232 19.8685C47.2572 20.5313 47.2359 21.0255 47.2628 21.5184C47.2855 21.9312 47.2232 22.4354 47.7567 22.5826C48.2464 22.7168 48.5662 22.3454 48.8238 22.0183C49.4733 21.1941 50.0819 20.3356 50.7555 19.4242C51.0725 19.9171 50.9324 20.3399 50.931 20.7441C50.931 21.3155 50.7965 22.0297 51.4744 22.2283C52.2881 22.4597 52.5627 21.6769 52.8188 21.117C53.2971 20.0756 53.6962 18.9971 54.1151 17.9286C54.534 16.8601 54.7675 15.6802 55.5232 14.4203C55.6478 15.9088 55.3817 17.043 55.3548 18.1843C55.2982 20.4556 54.3642 22.2712 53.0254 24.041C50.0252 28.0007 47.8529 32.469 45.7967 36.9715C44.8697 39.0056 44.4098 41.1997 44.114 43.4153C44.0235 44.0558 44.0235 44.706 44.114 45.3465C44.3971 47.2035 45.549 47.6321 46.9515 46.4379C47.9421 45.5908 48.6497 44.5052 49.2554 43.3553C51.9527 38.1785 54.1647 32.8075 55.1213 27.0079C55.6393 23.8653 56.2535 20.817 58.556 18.4229C59.2253 18.55 58.965 19.0457 58.9225 19.4228C58.8517 20.0628 58.7145 20.6956 58.655 21.3355C58.6225 21.6855 58.6423 22.084 59.0173 22.2783C59.3923 22.4726 59.7008 22.2397 59.9513 21.9855C60.6518 21.2712 61.3665 20.557 62.0189 19.8099C62.7138 19.0171 63.352 18.1758 64.0285 17.3372C65.2922 18.7357 65.6418 18.8728 66.5885 18.4315C67.7603 17.8858 68.925 16.1788 68.8627 15.0674C67.9499 15.3274 67.6528 16.2502 67.0088 16.7816C66.5843 17.1358 66.205 17.8215 65.5937 17.4358C65.07 17.1058 65.2087 16.3773 65.3531 15.8402C65.4804 15.3731 65.7776 14.9403 66.0494 14.5275C67.0839 12.9762 68.124 11.4277 68.8797 9.71212C69.1819 8.98473 69.4404 8.23963 69.6538 7.48086C69.7096 7.30898 69.7107 7.12382 69.6572 6.95122C69.6037 6.77862 69.4981 6.6272 69.3552 6.51808ZM38.0797 19.9742C37.2377 21.2598 36.4253 22.5926 34.8007 23.8653C35.2465 20.1656 36.4154 17.4672 39.4071 15.7317C39.6859 17.3658 39.6222 17.6201 38.0882 19.9742H38.0797ZM45.4938 45.8479C45.227 44.9581 45.1822 44.0154 45.3636 43.1038C45.6792 41.1911 46.0995 39.2956 46.885 37.5143C48.6363 33.5077 50.7109 29.6531 53.0877 25.9894C53.3523 25.5852 53.5646 25.1052 54.0585 24.8824C54.2128 30.1734 48.9851 43.2196 45.5023 45.8479H45.4938ZM59.5905 21.3869C59.4093 19.4157 60.1919 18.09 60.2146 16.673L61.15 15.4217C62.2821 14.7075 62.9147 13.4733 63.9379 12.659C64.8464 11.9362 64.429 13.0176 64.6328 13.259C64.4474 16.7459 61.733 18.5743 59.599 21.3869H59.5905ZM65.7168 13.2876C66.0154 11.2606 66.8065 9.50785 68.3108 8.12081C68.0816 10.1564 66.9197 11.742 65.7253 13.2876H65.7168Z" fill="#090909"/>
</g>
<defs>
<clipPath id="clip0_135_24">
<rect width="122" height="56" fill="white"/>
</clipPath>
</defs>
</svg>
